Coordinates
version=1
nRows=5
nColumns=40
inDegrees=yes

Units are S.I. units (second, meters, Newtons, ...)
Angles are in degrees.

endheader
time	pelvis_tilt	pelvis_list	pelvis_rotation	pelvis_tx	pelvis_ty	pelvis_tz	hip_flexion_r	hip_adduction_r	hip_rotation_r	knee_angle_r	knee_angle_r_beta	ankle_angle_r	subtalar_angle_r	mtp_angle_r	hip_flexion_l	hip_adduction_l	hip_rotation_l	knee_angle_l	knee_angle_l_beta	ankle_angle_l	subtalar_angle_l	mtp_angle_l	lumbar_extension	lumbar_bending	lumbar_rotation	arm_flex_r	arm_add_r	arm_rot_r	elbow_flex_r	pro_sup_r	wrist_flex_r	wrist_dev_r	arm_flex_l	arm_add_l	arm_rot_l	elbow_flex_l	pro_sup_l	wrist_flex_l	wrist_dev_l
     48.84250000	     -2.79360966	     -4.82289851	     -1.10292815	      1.08510319	      0.92830687	      0.47035975	     16.70287439	      0.94483747	     -9.95876630	     19.01781026	     19.01781026	      6.62553935	     -2.90153908	     -5.71682249	      3.76269829	    -10.99350447	     -8.76106276	     29.53985727	     29.53985727	     17.36914979	    -11.04473499	     -1.22138912	     -8.92377409	      7.13175468	      1.28410878	      8.66444524	    -17.39488590	      0.33931195	     42.70027745	     45.37450301	      0.00000000	      0.00000000	      0.11185491	    -10.02250285	     -6.89783365	     46.30975509	     46.43459177	      0.00000000	      0.00000000
     48.85600000	     -2.55945445	     -4.85489053	     -0.72432619	      1.08595233	      0.92864414	      0.47314673	     16.11087612	      1.02266827	    -10.52069028	     19.31721807	     19.31721807	      7.44917036	     -2.46488043	     -5.30936634	      4.93368781	    -11.43012895	     -7.62262618	     32.50447102	     32.50447102	     15.25834516	    -13.10925347	     -3.91764934	     -9.06990336	      7.22562413	      1.44155818	      8.21277955	    -17.79702069	      0.73022330	     45.10325125	     45.27621654	      0.00000000	      0.00000000	     -0.20692588	     -9.84975475	     -7.39499523	     46.14952904	     46.48087677	      0.00000000	      0.00000000
     48.86950000	     -2.28257643	     -5.00463417	     -0.34717274	      1.08667260	      0.92898275	      0.47604775	     15.35147030	      1.31865112	    -10.89829532	     19.33221811	     19.33221811	      7.91861629	     -2.43410359	     -5.41971659	      6.35600098	    -12.11605852	     -6.72357303	     36.04441158	     36.04441158	     14.03159151	    -14.13597570	     -4.37365095	     -9.23415869	      7.42079637	      1.58186550	      8.52813112	    -17.90376408	      0.71030059	     45.42022561	     45.26956917	      0.00000000	      0.00000000	     -0.49775235	     -9.86084538	     -7.40360970	     45.91578368	     46.47659412	      0.00000000	      0.00000000
     48.88300000	     -2.23119751	     -5.06924807	      0.05841393	      1.08711263	      0.92890257	      0.47865268	     14.88500950	      1.49412032	    -11.32341896	     19.40706197	     19.40706197	      8.37441699	     -2.42492045	     -5.52419164	      8.20219919	    -12.60529289	     -5.62022426	     39.73167084	     39.73167084	     12.44350356	    -15.44037054	     -4.80485059	     -9.08875527	      7.52845409	      1.54205252	      8.69343017	    -18.00075817	      0.73617326	     46.12294137	     45.24631838	      0.00000000	      0.00000000	     -0.93860817	     -9.86531816	     -7.45645672	     45.56350266	     46.47427327	      0.00000000	      0.00000000
     48.89650000	     -2.00273552	     -5.15022559	      0.49053398	      1.08733698	      0.92900382	      0.48112734	     14.25046016	      1.69855160	    -11.65472568	     19.49406829	     19.49406829	      8.86919703	     -2.47211016	     -5.63642184	      9.93048471	    -13.07230571	     -4.53190595	     43.40254107	     43.40254107	     10.74275139	    -16.47037445	     -4.93620355	     -9.29418117	      7.65182208	      1.65235905	      8.94403876	    -18.15460329	      0.77342332	     46.80046486	     45.22329846	      0.00000000	      0.00000000	     -1.14609590	     -9.93523799	     -7.56023019	     45.31586061	     46.48045298	      0.00000000	      0.00000000
